<svg xmlns="http://www.w3.org/2000/svg" aria-hidden="true" style="width:0;height:0;position:absolute;overflow:hidden"><defs><symbol id="icon-arrow-right" viewBox="0 0 32 32"><path d="M11.501 6.727a2.257 2.257 0 0 0-.772.776l-.006.01a1.15 1.15 0 0 0 .005.99l-.003-.007c.075.149 1.313 1.427 3.745 3.864L18.105 16l-3.635 3.64c-2.432 2.437-3.671 3.715-3.745 3.864-.235.469-.113.977.34 1.431s.96.575 1.431.34c.312-.156 8.623-8.467 8.779-8.779.07-.145.111-.316.112-.496a1.175 1.175 0 0 0-.115-.503l.003.007c-.156-.312-8.467-8.623-8.779-8.779a1.173 1.173 0 0 0-1.002.005l.007-.003z"/></symbol><symbol id="icon-close_menu" viewBox="0 0 32 32"><path d="M7.501 6.727a2.257 2.257 0 0 0-.772.776l-.006.01a1.15 1.15 0 0 0 .005.99l-.003-.007c.075.149 1.313 1.427 3.745 3.864L14.105 16l-3.635 3.64c-2.432 2.437-3.671 3.715-3.745 3.864-.235.469-.113.977.34 1.431s.961.575 1.431.34c.149-.075 1.427-1.313 3.864-3.745L16 17.895l3.64 3.635c2.437 2.432 3.715 3.671 3.864 3.745.469.235.977.113 1.431-.34s.575-.961.34-1.431c-.075-.149-1.313-1.427-3.745-3.864L17.895 16l3.635-3.64c2.432-2.437 3.671-3.715 3.745-3.864.235-.469.113-.977-.34-1.431s-.961-.575-1.431-.34c-.149.075-1.427 1.313-3.864 3.745L16 14.105l-3.64-3.635C9.923 8.038 8.645 6.799 8.496 6.725a1.173 1.173 0 0 0-1.002.005l.007-.003z"/></symbol><symbol id="icon-favorite" viewBox="0 0 32 32"><path fill="#4440f6" d="M32 16c0 8.837-7.163 16-16 16S0 24.837 0 16 7.163 0 16 0s16 7.163 16 16z" style="fill:var(--color1,#4440f6)"/><path fill="#f4f4f4" d="M19.713 8.748c-.608 0-1.208.121-1.77.354s-1.073.572-1.502 1.002l-.441.441-.441-.441a4.624 4.624 0 0 0-6.541 0 4.629 4.629 0 0 0 0 6.542l6.629 6.629a.499.499 0 0 0 .708 0l6.631-6.629c.43-.429.769-.941 1.002-1.502a4.614 4.614 0 0 0-1.002-5.042 4.63 4.63 0 0 0-3.271-1.356zm0 1a3.639 3.639 0 0 1 2.565 1.062 3.63 3.63 0 0 1 1.062 2.565 3.63 3.63 0 0 1-1.062 2.565l-6.277 6.275-6.275-6.275a3.624 3.624 0 0 1 2.564-6.189c.961 0 1.882.38 2.563 1.061l.795.795a.499.499 0 0 0 .708 0l.795-.795c.337-.337.738-.603 1.178-.785s.91-.277 1.387-.277z" style="fill:var(--color2,#f4f4f4)"/></symbol><symbol id="icon-home" viewBox="0 0 32 32"><path fill="#4440f6" style="fill:var(--color1,#4440f6)" d="M32 16c0 8.837-7.163 16-16 16S0 24.837 0 16 7.163 0 16 0s16 7.163 16 16z"/><path fill="#f4f4f4" style="fill:var(--color2,#f4f4f4)" d="m15.693 8.105-6.75 5.25a.5.5 0 0 0-.193.395V22a2 2 0 0 0 2 2h10.5a2 2 0 0 0 2-2v-8.25a.5.5 0 0 0-.192-.394l-.001-.001-6.75-5.25a.495.495 0 0 0-.615.001l.001-.001zM16 9.133l6.25 4.861V22a1 1 0 0 1-1 1h-10.5a1 1 0 0 1-1-1v-8.006z"/><path fill="#f4f4f4" style="fill:var(--color2,#f4f4f4)" d="M13.75 15.5a.5.5 0 0 0-.5.5v7.5a.5.5 0 0 0 1 0v-7h3.5v7a.5.5 0 0 0 1 0V16a.5.5 0 0 0-.5-.5z"/></symbol><symbol id="icon-menu" viewBox="0 0 32 32"><path d="M3.492 6.741c-.321.1-.495.235-.655.507-.129.22-.144.297-.144.752 0 .457.015.531.148.759.1.166.234.3.395.397l.005.003.252.148h25.021l.26-.16c.329-.204.507-.529.544-1.001.037-.459-.088-.885-.333-1.129-.376-.376.605-.349-13.008-.345-9.711.003-12.316.017-12.485.071zm0 8c-.321.1-.495.235-.655.507-.129.22-.144.297-.144.752 0 .457.015.531.148.759.1.166.234.3.395.397l.005.003.252.148h25.021l.26-.16c.329-.204.507-.529.544-1.001.037-.459-.088-.885-.333-1.129-.376-.376.605-.349-13.008-.345-9.711.003-12.316.017-12.485.071zm0 8c-.321.1-.495.235-.655.507-.129.22-.144.297-.144.752 0 .457.015.531.148.759.1.166.234.3.395.397l.005.003.252.148h25.021l.26-.16c.329-.204.507-.529.544-1.001.037-.459-.088-.885-.333-1.129-.376-.376.605-.349-13.008-.345-9.711.003-12.316.017-12.485.071z"/></symbol><symbol id="icon-moon" viewBox="0 0 32 32"><path d="M14.321 2.939c-2.062.303-3.803.949-5.394 1.998-3.241 2.138-5.218 5.207-5.868 9.117-.136.82-.139 2.891-.005 3.738.472 2.974 1.679 5.381 3.727 7.427 2.036 2.037 4.453 3.255 7.38 3.718.843.133 2.415.158 3.322.053 1.727-.195 3.3-.698 4.716-1.456l-.07.034a12.346 12.346 0 0 0 3.168-2.318l.001-.001c2.141-2.158 3.445-4.834 3.771-7.739.061-.536.059-.619-.024-.837-.102-.268-.443-.651-.651-.728a1.212 1.212 0 0 0-.782.033l.008-.003c-.087.046-.381.229-.651.405a8.092 8.092 0 0 1-4.526 1.369 8.14 8.14 0 0 1-5.691-2.309l.002.002a8.183 8.183 0 0 1-2.455-6.774l-.003.036c.146-1.356.568-2.514 1.364-3.744.329-.509.364-.59.384-.888.024-.393-.053-.658-.268-.902-.247-.282-.661-.346-1.455-.23zm-1.588 2.728c-.014.037-.111.331-.216.655a10.25 10.25 0 0 0-.51 3.225c0 4.349 2.656 8.078 6.434 9.653l.069.026c1.166.485 2.519.767 3.939.767 1.211 0 2.374-.205 3.456-.582l-.074.022c.294-.098.542-.171.553-.16.043.043-.343 1.003-.629 1.566-2.191 4.322-7.005 6.705-11.701 5.794-3.378-.655-6.206-2.786-7.727-5.819a10.729 10.729 0 0 1-1.145-4.858c0-4.271 2.461-7.968 6.043-9.748l.063-.028c.561-.273 1.275-.562 1.423-.574.026-.003.035.026.021.062z"/></symbol><symbol id="icon-read" viewBox="0 0 32 32"><path fill="#4440f6" d="M32 16c0 8.837-7.163 16-16 16S0 24.837 0 16 7.163 0 16 0s16 7.163 16 16z" style="fill:var(--color1,#4440f6)"/><path fill="#f4f4f4" d="M8.5 8.75a.5.5 0 0 0-.5.5V20.5a.5.5 0 0 0 .5.5h5.25a1.747 1.747 0 0 1 1.75 1.75.5.5 0 0 0 1 0v-10.5a3.503 3.503 0 0 0-3.5-3.5zm.5 1h4a2.5 2.5 0 0 1 2.5 2.5v8.475c-.496-.422-1.094-.725-1.75-.725H9z" style="fill:var(--color2,#f4f4f4)"/><path fill="#f4f4f4" d="M19 8.75a3.503 3.503 0 0 0-3.5 3.5v10.5a.5.5 0 0 0 1 0A1.747 1.747 0 0 1 18.25 21h5.25a.5.5 0 0 0 .5-.5V9.25a.5.5 0 0 0-.5-.5zm0 1h4V20h-4.75c-.656 0-1.254.302-1.75.725V12.25a2.5 2.5 0 0 1 2.5-2.5z" style="fill:var(--color2,#f4f4f4)"/></symbol><symbol id="icon-sun" viewBox="0 0 32 32"><path d="M15.511.724a.851.851 0 0 0-.573.591l-.001.006c-.076.273-.073 3.229.003 3.503.116.418.515.669 1.061.669s.945-.251 1.061-.669c.076-.274.079-3.23.003-3.503-.155-.561-.829-.82-1.553-.597zM5.457 4.907c-.401.23-.712.678-.709 1.024.002.358.187.614 1.155 1.595 1.143 1.158 1.42 1.384 1.751 1.42.34.04.66-.098.946-.405.44-.469.472-.928.102-1.41a22.097 22.097 0 0 0-1.17-1.222l-.006-.006c-1.239-1.221-1.478-1.336-2.069-.997zm20.205-.054c-.251.114-1.981 1.78-2.366 2.281-.396.514-.335 1.009.184 1.487.454.419.916.445 1.388.081.155-.12.709-.649 1.228-1.176.975-.989 1.154-1.237 1.155-1.606 0-.236-.259-.696-.491-.87-.434-.325-.707-.373-1.099-.197zM15.04 8.459c-.71.13-1.058.213-1.466.352-2.575.881-4.448 3.005-5.024 5.696-.137.645-.137 2.342 0 2.987.576 2.691 2.449 4.815 5.024 5.696.872.297 1.278.358 2.426.358s1.551-.061 2.427-.358a9.369 9.369 0 0 0 1.836-.904l-.038.023c.715-.474 1.591-1.341 2.05-2.031a8.486 8.486 0 0 0 1.163-2.726l.011-.058c.137-.645.137-2.344 0-2.987-.632-2.981-2.929-5.293-5.852-5.938l-.051-.009c-.387-.087-2.188-.158-2.507-.101zm2.24 2.368c.623.151 1.525.605 2.065 1.038a5.678 5.678 0 0 1 1.828 2.843l.009.04c.14.573.168 1.768.05 2.293a5.411 5.411 0 0 1-2.881 3.721l-.031.014c-.832.408-1.347.526-2.321.526s-1.489-.117-2.319-.526a5.222 5.222 0 0 1-2.443-2.424l-.014-.031c-.408-.832-.526-1.347-.526-2.321s.117-1.489.526-2.319a5.391 5.391 0 0 1 3.988-2.957l.03-.004c.466-.073 1.519-.018 2.037.107zM1.262 14.958a.797.797 0 0 0-.541.577l-.001.005c-.213.718.044 1.37.602 1.524.273.076 3.229.073 3.503-.003.425-.117.67-.518.666-1.086-.003-.504-.181-.821-.556-.994-.194-.088-.373-.098-1.841-.098-1.24.002-1.675.018-1.832.075zm25.805.021c-.378.175-.555.491-.558.995-.005.578.242.972.683 1.091.154.041.754.055 1.864.044 1.525-.015 1.65-.023 1.818-.122.254-.151.37-.326.443-.681a1.233 1.233 0 0 0-.002-.621l.002.009c-.073-.355-.189-.53-.443-.68-.169-.101-.29-.108-1.886-.12-1.571-.014-1.725-.006-1.92.085zM7.36 23.131c-.102.049-.683.582-1.291 1.186-1.138 1.132-1.32 1.371-1.321 1.752-.003.498.677 1.184 1.172 1.182.369-.002.617-.18 1.606-1.155 1.21-1.195 1.391-1.423 1.422-1.798.027-.329-.059-.541-.354-.85-.373-.393-.829-.51-1.234-.317zm16.454-.006c-.28.172-.509.402-.673.675l-.005.009a.782.782 0 0 0-.084.494l-.001-.004c.03.375.212.605 1.422 1.798.981.968 1.237 1.154 1.595 1.155.498.003 1.186-.684 1.182-1.182-.002-.358-.187-.614-1.155-1.595-1.222-1.239-1.423-1.396-1.821-1.419a.846.846 0 0 0-.467.072l.005-.002zm-8.312 3.459a.85.85 0 0 0-.542.526l-.002.006c-.072.187-.081.471-.067 1.899.015 1.566.023 1.69.123 1.859.149.254.325.37.68.443a1.227 1.227 0 0 0 .621-.002l-.009.002c.355-.073.53-.189.681-.443.099-.168.107-.293.122-1.818.018-1.812-.003-1.987-.277-2.261-.277-.277-.876-.372-1.33-.21z"/></symbol><symbol id="icon-heart" viewBox="0 0 32 32"><path stroke-linejoin="round" stroke-linecap="round" stroke-width="1.778" d="M27.787 6.146C26.46 4.818 24.626 3.997 22.6 3.997s-3.859.821-5.187 2.149L16 7.559l-1.413-1.413A7.335 7.335 0 0 0 4.214 16.52L16 28.306l11.787-11.787c1.328-1.327 2.149-3.161 2.149-5.187s-.821-3.859-2.149-5.187z"/></symbol><symbol id="icon-small-heart" viewBox="0 0 32 32"><path d="M9.334 4c-3.682 0-6.668 2.954-6.668 6.6 0 2.942 1.168 9.926 12.652 16.986a1.31 1.31 0 0 0 1.37-.003l-.006.003c11.484-7.06 12.652-14.044 12.652-16.986 0-3.646-2.986-6.6-6.668-6.6C18.986 4 16 8 16 8s-2.986-4-6.666-4z"/></symbol><symbol id="icon-small-heart--empty" viewBox="0 0 32 32"><path stroke-linejoin="round" stroke-linecap="round" stroke-width="2" d="M9.334 4c-3.682 0-6.668 2.954-6.668 6.6 0 2.942 1.168 9.926 12.652 16.986a1.31 1.31 0 0 0 1.37-.003l-.006.003c11.484-7.06 12.652-14.044 12.652-16.986 0-3.646-2.986-6.6-6.668-6.6C18.986 4 16 8 16 8s-2.986-4-6.666-4z"/></symbol><symbol id="icon-search" viewBox="0 0 34 32"><path d="M14.666 26.5c2.96 0 5.832-.94 8.162-2.672l7.328 6.96 2.356-2.24-7.328-6.96A12.124 12.124 0 0 0 28 13.836v-.002C28 6.85 22.02 1.166 14.666 1.166c-7.352 0-13.332 5.684-13.332 12.668S7.314 26.5 14.666 26.5zm0-22.166c5.516 0 10 4.26 10 9.5s-4.484 9.5-10 9.5c-5.514 0-10-4.26-10-9.5s4.486-9.5 10-9.5z"/></symbol><symbol id="icon-kalendar" viewBox="0 0 32 32"><path d="M23.408 4.444h5.925a1.48 1.48 0 0 1 1.481 1.481V29.63a1.48 1.48 0 0 1-1.481 1.481H2.666a1.48 1.48 0 0 1-1.481-1.481V5.925a1.48 1.48 0 0 1 1.481-1.481h5.925V1.48h2.964v2.964h8.889V1.48h2.964v2.964zm4.444 11.853H4.147v11.851h23.705V16.297zm-7.408-8.889h-8.889v2.962H8.591V7.408H4.147v5.925h23.705V7.408h-4.444v2.962h-2.964V7.408zM7.111 19.259h2.964v2.964H7.111v-2.964zm7.408 0h2.962v2.964h-2.962v-2.964zm7.406 0h2.964v2.964h-2.964v-2.964z"/></symbol><symbol id="icon-vector-down" viewBox="0 0 32 32"><path d="M3.76 9.143 0 12.622l16 14.807 16-14.807-3.76-3.479L16 20.446 3.76 9.143z"/></symbol><symbol id="icon-vector-up" viewBox="0 0 32 32"><path d="M3.76 25.143 0 21.664 16 6.857l16 14.807-3.76 3.479L16 13.84 3.76 25.143z"/></symbol></defs></svg>